<svg width="257" height="48" viewBox="0 0 257 48" fill="none" xmlns="http://www.w3.org/2000/svg">
<path d="M20.5114 13.5568C20.3977 12.3068 19.892 11.3352 18.9943 10.642C18.108 9.9375 16.8409 9.58523 15.1932 9.58523C14.1023 9.58523 13.1932 9.72727 12.4659 10.0114C11.7386 10.2955 11.1932 10.6875 10.8295 11.1875C10.4659 11.6761 10.2784 12.2386 10.267 12.875C10.2443 13.3977 10.3466 13.858 10.5739 14.2557C10.8125 14.6534 11.1534 15.0057 11.5966 15.3125C12.0511 15.608 12.5966 15.8693 13.233 16.0966C13.8693 16.3239 14.5852 16.5227 15.3807 16.6932L18.3807 17.375C20.108 17.75 21.6307 18.25 22.9489 18.875C24.2784 19.5 25.392 20.2443 26.2898 21.108C27.1989 21.9716 27.8864 22.9659 28.3523 24.0909C28.8182 25.2159 29.0568 26.4773 29.0682 27.875C29.0568 30.0795 28.5 31.9716 27.3977 33.5511C26.2955 35.1307 24.7102 36.3409 22.642 37.1818C20.5852 38.0227 18.1023 38.4432 15.1932 38.4432C12.2727 38.4432 9.72727 38.0057 7.55682 37.1307C5.38636 36.2557 3.69886 34.9261 2.49432 33.142C1.28977 31.358 0.670455 29.1023 0.636364 26.375H8.71591C8.78409 27.5 9.08523 28.4375 9.61932 29.1875C10.1534 29.9375 10.8864 30.5057 11.8182 30.892C12.7614 31.2784 13.8523 31.4716 15.0909 31.4716C16.2273 31.4716 17.1932 31.3182 17.9886 31.0114C18.7955 30.7045 19.4148 30.2784 19.8466 29.733C20.2784 29.1875 20.5 28.5625 20.5114 27.858C20.5 27.1989 20.2955 26.6364 19.8977 26.1705C19.5 25.6932 18.8864 25.2841 18.0568 24.9432C17.2386 24.5909 16.1932 24.267 14.9205 23.9716L11.2727 23.1193C8.25 22.4261 5.86932 21.3068 4.13068 19.7614C2.39205 18.2045 1.52841 16.1023 1.53977 13.4545C1.52841 11.2955 2.10795 9.40341 3.27841 7.77841C4.44886 6.15341 6.06818 4.88636 8.13636 3.97727C10.2045 3.06818 12.5625 2.61364 15.2102 2.61364C17.9148 2.61364 20.2614 3.07386 22.25 3.99432C24.25 4.90341 25.8011 6.18182 26.9034 7.82955C28.0057 9.47727 28.5682 11.3864 28.5909 13.5568H20.5114ZM48.108 11.8182V17.9545H31.5909V11.8182H48.108ZM35.0511 5.54545H43.3864V29.767C43.3864 30.2784 43.4659 30.6932 43.625 31.0114C43.7955 31.3182 44.0398 31.5398 44.358 31.6761C44.6761 31.8011 45.0568 31.8636 45.5 31.8636C45.8182 31.8636 46.1534 31.8352 46.5057 31.7784C46.8693 31.7102 47.142 31.6534 47.3239 31.608L48.5852 37.625C48.1875 37.7386 47.625 37.8807 46.8977 38.0511C46.1818 38.2216 45.3239 38.3295 44.3239 38.375C42.3693 38.4659 40.6932 38.2386 39.2955 37.6932C37.9091 37.1364 36.8466 36.2727 36.108 35.1023C35.3807 33.9318 35.0284 32.4602 35.0511 30.6875V5.54545ZM59.7415 38.4432C58.071 38.4432 56.5881 38.1648 55.2926 37.608C54.0085 37.0398 52.9915 36.1875 52.2415 35.0511C51.5028 33.9034 51.1335 32.4659 51.1335 30.7386C51.1335 29.2841 51.3892 28.0568 51.9006 27.0568C52.4119 26.0568 53.1165 25.2443 54.0142 24.6193C54.9119 23.9943 55.946 23.5227 57.1165 23.2045C58.2869 22.875 59.5369 22.6534 60.8665 22.5398C62.3551 22.4034 63.554 22.2614 64.4631 22.1136C65.3722 21.9545 66.0313 21.733 66.4403 21.4489C66.8608 21.1534 67.071 20.7386 67.071 20.2045V20.1193C67.071 19.2443 66.7699 18.5682 66.1676 18.0909C65.5653 17.6136 64.7528 17.375 63.7301 17.375C62.6278 17.375 61.7415 17.6136 61.071 18.0909C60.4006 18.5682 59.9744 19.2273 59.7926 20.0682L52.1051 19.7955C52.3324 18.2045 52.9176 16.7841 53.8608 15.5341C54.8153 14.2727 56.1222 13.2841 57.7812 12.5682C59.4517 11.8409 61.4574 11.4773 63.7983 11.4773C65.4688 11.4773 67.0085 11.6761 68.4176 12.0739C69.8267 12.4602 71.054 13.0284 72.0994 13.7784C73.1449 14.517 73.9517 15.4261 74.5199 16.5057C75.0994 17.5852 75.3892 18.8182 75.3892 20.2045V38H67.5483V34.3523H67.3438C66.8778 35.2386 66.2813 35.9886 65.554 36.6023C64.8381 37.2159 63.9915 37.6761 63.0142 37.983C62.0483 38.2898 60.9574 38.4432 59.7415 38.4432ZM62.3153 32.9886C63.2131 32.9886 64.0199 32.8068 64.7358 32.4432C65.4631 32.0795 66.0426 31.5795 66.4744 30.9432C66.9063 30.2955 67.1222 29.5455 67.1222 28.6932V26.2045C66.8835 26.3295 66.5938 26.4432 66.2528 26.5455C65.9233 26.6477 65.5597 26.7443 65.1619 26.8352C64.7642 26.9261 64.3551 27.0057 63.9347 27.0739C63.5142 27.142 63.1108 27.2045 62.7244 27.2614C61.9403 27.3864 61.2699 27.5795 60.7131 27.8409C60.1676 28.1023 59.7472 28.4432 59.4517 28.8636C59.1676 29.2727 59.0256 29.7614 59.0256 30.3295C59.0256 31.1932 59.3324 31.8523 59.946 32.3068C60.571 32.7614 61.3608 32.9886 62.3153 32.9886ZM84.6449 47.8182C83.6449 47.8182 82.7017 47.7386 81.8153 47.5795C80.929 47.4318 80.1676 47.233 79.5312 46.983L81.3722 40.9318C82.1903 41.2045 82.929 41.3636 83.5881 41.4091C84.2585 41.4545 84.8324 41.3466 85.3097 41.0852C85.7983 40.8352 86.1733 40.3864 86.4347 39.7386L86.7585 38.9545L77.4517 11.8182H86.179L91.0028 30.5H91.2756L96.1676 11.8182H104.946L95.0767 40.5057C94.5994 41.9375 93.9233 43.1989 93.0483 44.2898C92.1847 45.392 91.0653 46.2557 89.6903 46.8807C88.3267 47.5057 86.6449 47.8182 84.6449 47.8182ZM108.142 38V3.09091H131.972V9.94318H116.58V17.1023H130.455V23.9716H116.58V38H108.142ZM136.22 38V11.8182H144.555V38H136.22ZM140.396 8.76705C139.226 8.76705 138.22 8.38068 137.379 7.60795C136.538 6.82386 136.118 5.88068 136.118 4.77841C136.118 3.6875 136.538 2.75568 137.379 1.98295C138.22 1.19886 139.226 0.806816 140.396 0.806816C141.578 0.806816 142.584 1.19886 143.413 1.98295C144.254 2.75568 144.675 3.6875 144.675 4.77841C144.675 5.88068 144.254 6.82386 143.413 7.60795C142.584 8.38068 141.578 8.76705 140.396 8.76705ZM158.196 23.0682V38H149.861V11.8182H157.787V16.625H158.077C158.656 15.0227 159.645 13.767 161.043 12.858C162.44 11.9375 164.105 11.4773 166.037 11.4773C167.878 11.4773 169.474 11.892 170.827 12.7216C172.19 13.5398 173.247 14.6875 173.997 16.1648C174.759 17.6307 175.134 19.3466 175.122 21.3125V38H166.787V22.9489C166.798 21.4943 166.429 20.358 165.679 19.5398C164.94 18.7216 163.912 18.3125 162.594 18.3125C161.719 18.3125 160.946 18.5057 160.276 18.892C159.616 19.267 159.105 19.8068 158.741 20.5114C158.389 21.2159 158.207 22.0682 158.196 23.0682ZM189.845 38.375C187.913 38.375 186.158 37.875 184.578 36.875C182.999 35.875 181.737 34.375 180.794 32.375C179.851 30.375 179.379 27.892 179.379 24.9261C179.379 21.8466 179.868 19.3125 180.845 17.3239C181.822 15.3352 183.101 13.8636 184.68 12.9091C186.271 11.9545 187.982 11.4773 189.811 11.4773C191.186 11.4773 192.362 11.7159 193.339 12.1932C194.317 12.6591 195.124 13.2614 195.76 14C196.396 14.7386 196.879 15.5057 197.209 16.3011H197.379V3.09091H205.714V38H197.464V33.7557H197.209C196.857 34.5625 196.357 35.3182 195.709 36.0227C195.061 36.7273 194.249 37.2955 193.271 37.7273C192.305 38.1591 191.163 38.375 189.845 38.375ZM192.743 31.8807C193.754 31.8807 194.618 31.5966 195.334 31.0284C196.05 30.4489 196.601 29.6364 196.987 28.5909C197.374 27.5455 197.567 26.3182 197.567 24.9091C197.567 23.4773 197.374 22.2443 196.987 21.2102C196.612 20.1761 196.061 19.3807 195.334 18.8239C194.618 18.267 193.754 17.9886 192.743 17.9886C191.709 17.9886 190.834 18.2727 190.118 18.8409C189.402 19.4091 188.857 20.2102 188.482 21.2443C188.118 22.2784 187.936 23.5 187.936 24.9091C187.936 26.3182 188.124 27.5455 188.499 28.5909C188.874 29.6364 189.413 30.4489 190.118 31.0284C190.834 31.5966 191.709 31.8807 192.743 31.8807ZM223.224 38.4943C220.486 38.4943 218.122 37.9545 216.134 36.875C214.156 35.7841 212.634 34.233 211.565 32.2216C210.509 30.1989 209.98 27.7955 209.98 25.0114C209.98 22.3068 210.514 19.9432 211.582 17.9205C212.651 15.8864 214.156 14.3068 216.099 13.1818C218.043 12.0455 220.332 11.4773 222.969 11.4773C224.832 11.4773 226.537 11.767 228.082 12.3466C229.628 12.9261 230.963 13.7841 232.088 14.9205C233.213 16.0568 234.088 17.4602 234.713 19.1307C235.338 20.7898 235.651 22.6932 235.651 24.8409V26.9205H212.895V22.0795H227.895C227.884 21.1932 227.673 20.4034 227.264 19.7102C226.855 19.017 226.293 18.4773 225.577 18.0909C224.872 17.6932 224.06 17.4943 223.139 17.4943C222.207 17.4943 221.372 17.7045 220.634 18.125C219.895 18.5341 219.31 19.0966 218.878 19.8125C218.446 20.517 218.219 21.3182 218.196 22.2159V27.142C218.196 28.2102 218.406 29.1477 218.827 29.9545C219.247 30.75 219.844 31.3693 220.616 31.8125C221.389 32.2557 222.31 32.4773 223.378 32.4773C224.116 32.4773 224.787 32.375 225.389 32.1705C225.991 31.9659 226.509 31.6648 226.94 31.267C227.372 30.8693 227.696 30.3807 227.912 29.8011L235.565 30.0227C235.247 31.7386 234.548 33.233 233.469 34.5057C232.401 35.767 230.997 36.75 229.259 37.4545C227.52 38.1477 225.509 38.4943 223.224 38.4943ZM239.908 38V11.8182H248.004V16.5909H248.277C248.754 14.8636 249.533 13.5795 250.612 12.7386C251.692 11.8864 252.947 11.4602 254.379 11.4602C254.766 11.4602 255.163 11.4886 255.572 11.5455C255.982 11.5909 256.362 11.6648 256.714 11.767V19.0114C256.317 18.875 255.794 18.767 255.146 18.6875C254.51 18.608 253.942 18.5682 253.442 18.5682C252.453 18.5682 251.561 18.7898 250.766 19.233C249.982 19.6648 249.362 20.2727 248.908 21.0568C248.464 21.8295 248.243 22.7386 248.243 23.7841V38H239.908Z" fill="black"/>
</svg>
